{"title":"Traitor 2008 720p BRRip H264 AAC-Rx(Phoenix-RG)","uid":6293382,"size":1815325704,"categoryP":"video","categoryS":"hd___movies","magnet":"?xt=urn:btih:78de9b066e314a0dea686d88fe63cf56adebc1bc&amp;dn=Traitor+2008+720p+BRRip+H264+AAC-Rx%28Phoenix-RG%29&amp;tr=udp%3A%2F%2Ftracker.openbittorrent.com%3A80&amp;tr=udp%3A%2F%2Fopen.demonii.com%3A1337&amp;tr=udp%3A%2F%2Ftracker.coppersurfer.tk%3A6969&amp;tr=udp%3A%2F%2Fexodus.desync.com%3A6969","seeders":0,"leechers":1,"uploader":"rev-x","files":11,"time":1301911285,"description":"Traitor 2008 720p BRRip H264 AAC-Rx(Phoenix-RG).mp4\n      Format : MPEG-4/ AVC\n      File size : 1.69 GiB\n      Duration : 1h 54mn\n      Bit rate mode : Variable\n      Bit rate : 1 800 Kbps\n      Maximum bit rate : 14.4 Mbps\n      Width : 1 280 pixels\n      Height : 528 pixels\n      Display aspect ratio : 2.424\n      Frame rate mode : Constant\n      Frame rate : 23.976 fps\n      Resolution : 24 bits\n      Colorimetry : 4:2:0\n      Scan type : Progressive\n      Bits/(Pixel*Frame) : 0.111\n      Stream size : 1.43 GiB (85%)\n    \nAUDIO:\n      Format : AAC / LC\n      Duration : 1h 54mn\n      Bit rate mode : Variable\n      Bit rate : 321 Kbps\n      Maximum bit rate : 442 Kbps\n      Channel(s) : 6 channels\n      Channel positions : Front: L C R, Rear: L R, LFE\n      Sampling rate : 48.0 KHz\n      Resolution : 16 bits\n      Stream size : 262 MiB (15%)\n\n\n\nSCREENS:\n &lt;a href=&quot;\nhttp://img823.imageshack.us/img823/184/vlcsnap2011021711h58m02.png&quot; rel=&quot;nofollow&quot; target=&quot;_NEW&quot;&gt;\nhttp://img823.imageshack.us/img823/184/vlcsnap2011021711h58m02.png&lt;/a&gt;\n &lt;a href=&quot;\nhttp://img208.imageshack.us/img208/595/vlcsnap2011021712h02m50.jpg&quot; rel=&quot;nofollow&quot; target=&quot;_NEW&quot;&gt;\nhttp://img208.imageshack.us/img208/595/vlcsnap2011021712h02m50.jpg&lt;/a&gt;\n &lt;a href=&quot;\nhttp://img202.imageshack.us/img202/7138/vlcsnap2011021712h02m58.png&quot; rel=&quot;nofollow&quot; target=&quot;_NEW&quot;&gt;\nhttp://img202.imageshack.us/img202/7138/vlcsnap2011021712h02m58.png&lt;/a&gt;","torrent":{"xt":"urn:btih:78de9b066e314a0dea686d88fe63cf56adebc1bc","amp;dn":"Traitor+2008+720p+BRRip+H264+AAC-Rx%28Phoenix-RG%29","amp;tr":["udp%3A%2F%2Ftracker.openbittorrent.com%3A80","udp%3A%2F%2Fopen.demonii.com%3A1337","udp%3A%2F%2Ftracker.coppersurfer.tk%3A6969","udp%3A%2F%2Fexodus.desync.com%3A6969"],"infoHash":"78de9b066e314a0dea686d88fe63cf56adebc1bc","infoHashBuffer":{"type":"Buffer","data":[120,222,155,6,110,49,74,13,234,104,109,136,254,99,207,86,173,235,193,188]},"announce":[],"urlList":[]}}